M48
;FILE_FORMAT=2:4
INCH
;TYPE=PLATED
T01C0.018
T02C0.038
;TYPE=NON_PLATED
T03C0.098
%
T01
X+002500Y+022500
Y+021500
X+005500Y+020500
X+003500Y+018500
X+005500Y+022500
X+007500Y+016500
X+007000Y+017500
X+006500Y+017000
X+008000Y+020500
X+007500Y+020000
Y+019000
X+007900Y+018600
X+008500Y+019000
Y+022000
X+007500Y+021500
X+007000Y+029000
X+008500
X+011500Y+014000
X+010500
X+009500
X+011500Y+016000
X+010500
X+010000Y+023000
X+011000
Y+025000
X+010000
X+010500Y+029000
X+011000Y+031000
X+014000Y+014000
X+012500Y+016000
X+013500Y+017000
X+012500Y+020000
X+013000Y+022000
Y+023500
X+014000
Y+021500
X+014500Y+022500
X+013500Y+029000
X+014000Y+032500
X+016500Y+012500
Y+013500
X+015500Y+017000
Y+016000
X+016500Y+015500
X+016000Y+016500
X+016500Y+019000
Y+020000
Y+022500
X+017500
X+017000Y+021500
X+016500Y+025000
Y+026000
Y+029500
X+016000Y+029000
X+016500Y+028000
X+015500Y+027500
X+016000Y+031000
X+019000Y+013500
X+018500Y+014000
X+020000Y+016500
X+019000
X+018500Y+017000
X+019500
X+019000Y+020500
X+019500Y+020000
Y+019000
Y+023000
Y+025000
X+020500Y+028500
X+020000Y+029500
Y+028000
X+018500Y+029500
X+020000Y+031000
Y+032500
X+022000Y+013500
X+022500Y+012875
X+021500
X+023500
X+021500Y+016000
X+022000Y+017500
X+021500Y+020500
X+022000Y+019000
X+023000Y+022000
X+021500Y+026000
X+021600Y+025000
X+022000Y+029000
Y+027500
X+021500Y+030500
X+023000Y+032500
Y+031500
X+024500Y+013650
Y+017000
Y+026000
Y+025000
X+025000Y+029500
X+024500Y+027500
X+025000Y+028500
X+005000Y+012000
X+005500Y+033000
X+004000
X+008500Y+012000
X+007500Y+024000
X+011000Y+012000
X+009500
X+013000Y+018000
X+013500Y+015000
Y+024000
X+016500Y+021000
Y+024000
X+015500Y+018000
X+016500
Y+027000
X+019500Y+021000
Y+024000
X+018500Y+018000
X+021500
X+022000Y+015000
X+024500Y+024000
Y+015000
X+006000Y+012500
X+009000Y+014500
X+006000Y+019500
X+003000
X+009000
X+012000Y+023000
X+009000Y+025500
X+012000Y+025000
X+006000Y+026500
X+012000Y+029000
X+003000Y+029500
X+012000Y+031000
X+015000Y+013500
X+024000Y+015500
Y+017500
X+015000
X+024000Y+019500
Y+018500
X+018000Y+023000
X+021000Y+023500
Y+025500
X+015000Y+029000
X+021000
X+015000Y+030500
X+003000Y+012000
X+012000Y+018000
X+006000Y+015000
X+012000Y+027000
X+003000Y+033000
X+021000Y+021000
X+024000Y+027000
T02
X+004000Y+016000
Y+015000
Y+019000
Y+018000
Y+022000
Y+021000
Y+025000
Y+024000
Y+028000
Y+027000
Y+031000
Y+030000
X+005000Y+015000
Y+016000
Y+018000
Y+019000
Y+021000
Y+022000
Y+024000
Y+025000
Y+027000
Y+028000
Y+030000
Y+031000
X+004000Y+023000
Y+020000
Y+017000
Y+014000
Y+029000
Y+026000
X+005000Y+014000
Y+017000
Y+020000
Y+023000
Y+026000
Y+029000
T03
X+024500Y+012500
Y+032500
T00
M30
